<svg xmlns="http://www.w3.org/2000/svg" viewBox="0 0 820 260.18"><defs><style>.cls-1{fill:#1d2c5b;}.cls-2{fill:#d53748;}</style></defs><g id="Layer_2" data-name="Layer 2"><g id="Layer_1-2" data-name="Layer 1"><path class="cls-1" d="M262.85,157.73v-9.89a26.9,26.9,0,0,1,2.25-11.5,23.5,23.5,0,0,1,5.9-7.93,23.11,23.11,0,0,1,8.29-4.59,31.9,31.9,0,0,1,9.46-1.45,36.84,36.84,0,0,1,10.92,1.82,24.82,24.82,0,0,1,9.6,5.31c1.65,1.45,1.75,3.25.29,5.38l-6.26,8.74c-.87,1.35-1.89,1.86-3.05,1.52a11.68,11.68,0,0,1-2.91-1.23,12.84,12.84,0,0,0-3.57-1.82,10,10,0,0,0-2.84-.51,7.17,7.17,0,0,0-4.94,2q-2.19,2-2.19,6.33v7.86h13.54a3.24,3.24,0,0,1,3.2,3.2v11.21a3.16,3.16,0,0,1-1,2.18,3,3,0,0,1-2.25,1H283.8V225.4a3.23,3.23,0,0,1-.87,2.26,2.84,2.84,0,0,1-2.18.94h-14.7a3.21,3.21,0,0,1-3.2-3.2V175.34h-9.32a3,3,0,0,1-2.25-1,3.16,3.16,0,0,1-.95-2.18V160.93a3.24,3.24,0,0,1,3.2-3.2Z"/><path class="cls-1" d="M346.52,156.71a4.42,4.42,0,0,1,2.33.73c.78.49,1.17,1.55,1.17,3.2v14.41c0,1.65-.49,2.72-1.46,3.2a5.59,5.59,0,0,1-2.33.73h-3.78q-6.84,0-10.33,3.56t-3.5,11.72v31.43a2.56,2.56,0,0,1-1,2.11,3.44,3.44,0,0,1-2.19.8h-14.7a3,3,0,0,1-3.05-3V160.93a3.21,3.21,0,0,1,.87-2.25,2.85,2.85,0,0,1,2.18-1h14a3,3,0,0,1,2.1.87,2.69,2.69,0,0,1,.95,2v5.82a21.14,21.14,0,0,1,7.28-7.2,18.42,18.42,0,0,1,9.46-2.55Z"/><path class="cls-1" d="M426.2,178.61a37.06,37.06,0,0,0-7.84-11.6c-.12-.13-.25-.27-.39-.4a38.29,38.29,0,0,0-12.29-8,39,39,0,0,0-15.07-2.92,38.77,38.77,0,0,0-27.2,10.92,37.08,37.08,0,0,0-11.21,26.78,35.71,35.71,0,0,0,3,14.61,36.67,36.67,0,0,0,8.23,11.8,39.46,39.46,0,0,0,12.21,7.93,38.62,38.62,0,0,0,15,2.91,39.45,39.45,0,0,0,25.7-9.35c.56-.47,1.13-1,1.66-1.49A36.67,36.67,0,0,0,426.2,208c.25-.58.5-1.17.73-1.76a35.08,35.08,0,0,0,1.92-7.82,36,36,0,0,0,.33-5A37.07,37.07,0,0,0,426.2,178.61ZM403,205.89a16.19,16.19,0,0,1-5.45,3.87,17,17,0,0,1-6.92,1.38,16.49,16.49,0,0,1-12.22-5.25,17.78,17.78,0,0,1-3.64-5.74,18.53,18.53,0,0,1-1.3-6.91,18.86,18.86,0,0,1,1.3-7.06,17.3,17.3,0,0,1,3.64-5.68,18.29,18.29,0,0,1,5.46-3.85,15.85,15.85,0,0,1,6.76-1.45,16.25,16.25,0,0,1,6.92,1.45A18,18,0,0,1,403,180.5a17.32,17.32,0,0,1,3.65,5.68,18.86,18.86,0,0,1,1.3,7.06,18.53,18.53,0,0,1-1.3,6.91A17.8,17.8,0,0,1,403,205.89Z"/><path class="cls-2" d="M475.39,198a18.62,18.62,0,0,0-4.72-6.18,24.93,24.93,0,0,0-7-4.15,45.4,45.4,0,0,0-8.51-2.47L444,183.05q-4.5-.87-6.33-2.33a4.59,4.59,0,0,1-1.7-2.5,4.69,4.69,0,0,1-.11-1c0-1.46.82-2.69,2.47-3.71A12.63,12.63,0,0,1,445,172a22,22,0,0,1,8.65,1.74,45.92,45.92,0,0,1,7.5,3.93c2.92,1.75,5.24,1.59,7-.44l5.39-6.11a4.87,4.87,0,0,0,1.46-3.28,4.11,4.11,0,0,0-1.74-3.12,41,41,0,0,0-10.49-6q-7.12-3.06-17.75-3.06a41.29,41.29,0,0,0-12.65,1.82,30.12,30.12,0,0,0-9.53,4.88l.19.21a43.74,43.74,0,0,1,9.08,13.47c.43,1,.83,2,1.19,3.09a44.3,44.3,0,0,1,2.31,14.23,41.46,41.46,0,0,1-.39,5.92c0,.25-.07.51-.12.76l10.36,2.19a31,31,0,0,1,7.64,2.33,4.21,4.21,0,0,1,2.54,3.93,5.18,5.18,0,0,1-2.4,4.15q-2.4,1.82-7.34,1.82a21.31,21.31,0,0,1-9.54-2.11,35.51,35.51,0,0,1-4.05-2.32c-.07.17-.14.34-.21.49a43.22,43.22,0,0,1-9.66,13.87l-.59.56a57.46,57.46,0,0,0,7.52,3.26,47.25,47.25,0,0,0,15.8,2.4,44.59,44.59,0,0,0,13.16-1.82,32.16,32.16,0,0,0,10.12-5,22.09,22.09,0,0,0,6.47-7.63,20.73,20.73,0,0,0,2.26-9.55A19.62,19.62,0,0,0,475.39,198Z"/><path class="cls-2" d="M560,177.6a36.16,36.16,0,0,0-7.64-11.79,33.76,33.76,0,0,0-24.3-10.12,28.39,28.39,0,0,0-12.74,2.7,22.46,22.46,0,0,0-8.51,6.91v-4.37a3.27,3.27,0,0,0-.87-2.26,2.87,2.87,0,0,0-2.19-.93H489.22a2.87,2.87,0,0,0-2.19.93,3.31,3.31,0,0,0-.87,2.26v96.19a3,3,0,0,0,.87,2.19,3,3,0,0,0,2.19.87h14.85a3,3,0,0,0,2.11-.87,2.85,2.85,0,0,0,.95-2.19V221.91a17.48,17.48,0,0,0,8.87,6.62,34.23,34.23,0,0,0,11.78,2.11A35.15,35.15,0,0,0,541.17,228a32.64,32.64,0,0,0,11.21-7.57A37.13,37.13,0,0,0,560,208.59a43.83,43.83,0,0,0,0-31Zm-19.57,22.69a18.09,18.09,0,0,1-3.64,5.76,16.66,16.66,0,0,1-5.46,3.85,17.81,17.81,0,0,1-13.75,0,17.24,17.24,0,0,1-5.6-3.85,17.44,17.44,0,0,1-3.71-5.76,19.51,19.51,0,0,1,0-14.11A16.7,16.7,0,0,1,512,180.5a18.94,18.94,0,0,1,5.6-3.85,17,17,0,0,1,13.75,0,18.29,18.29,0,0,1,5.46,3.85,17.3,17.3,0,0,1,3.64,5.68,19.79,19.79,0,0,1,0,14.11Z"/><path class="cls-2" d="M670.83,208.52l-8.44-6.4c-1.35-1.07-2.57-1.38-3.63-1a7.53,7.53,0,0,0-2.78,2,27.87,27.87,0,0,1-6.61,5.9,16.22,16.22,0,0,1-8.66,2.11,17,17,0,0,1-6.92-1.38,16.39,16.39,0,0,1-5.45-3.87,16.65,16.65,0,0,1-3.57-5.74,19.32,19.32,0,0,1-1.24-6.91,19.66,19.66,0,0,1,1.24-7.06,16.22,16.22,0,0,1,3.57-5.68,18.24,18.24,0,0,1,5.45-3.85,18.09,18.09,0,0,1,15.58.66A27.6,27.6,0,0,1,656,183.2a7.42,7.42,0,0,0,2.78,2c1.06.44,2.28.13,3.63-.95l8.44-6.39a5,5,0,0,0,1.9-2.48,3.75,3.75,0,0,0-.3-3.2,35.13,35.13,0,0,0-12.72-11.79,39.81,39.81,0,0,0-46.43,6.19,35.8,35.8,0,0,0-8.07,11.93,37.5,37.5,0,0,0-2.92,14.77,37,37,0,0,0,2.92,14.7,36,36,0,0,0,8.07,11.86A40.5,40.5,0,0,0,659.71,226a35.3,35.3,0,0,0,12.72-11.79,3.63,3.63,0,0,0,.3-3.14A5.89,5.89,0,0,0,670.83,208.52Z"/><path class="cls-2" d="M748.61,177.82a33.75,33.75,0,0,0-7.27-11.28,36.42,36.42,0,0,0-11.43-7.87,36.91,36.91,0,0,0-15.13-3,37.5,37.5,0,0,0-27,11.06,35.85,35.85,0,0,0-7.78,12,39.18,39.18,0,0,0-2.77,14.76A38.22,38.22,0,0,0,680,208.16a35.23,35.23,0,0,0,7.78,11.78,35.77,35.77,0,0,0,11.94,7.86,39.86,39.86,0,0,0,15.35,2.84q11.77,0,19.27-4A36.19,36.19,0,0,0,746.22,217a3.27,3.27,0,0,0,.72-2.19,2.54,2.54,0,0,0-1.31-2.17l-11.2-7.28a2,2,0,0,0-2.11-.44,6,6,0,0,0-1.68,1.17,20.78,20.78,0,0,1-6.47,5.09,19.63,19.63,0,0,1-8.66,1.75A17,17,0,0,1,704.45,209a15.25,15.25,0,0,1-5.53-10.61h48.61c1.46,0,2.43-.35,2.91-1a4,4,0,0,0,.72-2.33v-3.92A35.24,35.24,0,0,0,748.61,177.82Zm-49.25,7.42a16.87,16.87,0,0,1,5.89-9.31,15.31,15.31,0,0,1,9.67-3.36,16.87,16.87,0,0,1,9.61,3.06q4.51,3.06,6,9.61Z"/><path class="cls-2" d="M818.25,198a18.75,18.75,0,0,0-4.72-6.18,25.22,25.22,0,0,0-7-4.15,45.84,45.84,0,0,0-8.51-2.47l-11.21-2.19q-4.52-.87-6.33-2.33a4.32,4.32,0,0,1-1.82-3.49c0-1.46.82-2.69,2.47-3.71a12.69,12.69,0,0,1,6.7-1.52,21.92,21.92,0,0,1,8.65,1.74,45.92,45.92,0,0,1,7.5,3.93c2.91,1.75,5.24,1.59,7-.44l5.39-6.11a4.88,4.88,0,0,0,1.44-3.28,4.08,4.08,0,0,0-1.74-3.12,41.17,41.17,0,0,0-10.47-6q-7.14-3.06-17.76-3.06a41.35,41.35,0,0,0-12.66,1.82,29.79,29.79,0,0,0-9.6,5,21.71,21.71,0,0,0-6,7.35,19.87,19.87,0,0,0-2.11,9q0,8.73,5.23,14t14,7l11.65,2.47a31.11,31.11,0,0,1,7.64,2.33,4.19,4.19,0,0,1,2.54,3.93,5.15,5.15,0,0,1-2.4,4.15q-2.4,1.82-7.35,1.82a21.26,21.26,0,0,1-9.53-2.11,35.11,35.11,0,0,1-7.64-5,9.69,9.69,0,0,0-3.13-1.67q-1.68-.51-4,1.24l-6.41,5a4.93,4.93,0,0,0-2,4.79c.29,1.86,2,3.89,5.09,6.12A46.66,46.66,0,0,0,788,230.64a44.77,44.77,0,0,0,13.18-1.82,32.05,32.05,0,0,0,10.1-5,22.15,22.15,0,0,0,6.49-7.63,20.85,20.85,0,0,0,2.25-9.55A19.76,19.76,0,0,0,818.25,198Z"/><path class="cls-2" d="M575.87,149c3.5,0,5.35,1.8,7,4.05,4.16,5.65,5.63,6,12.33,4.2a5.27,5.27,0,0,1,4.1.84,5,5,0,0,1,1.3,4.13c-2.13,7-5.52,13.77-6.69,21s0,14.67-.17,22c-.19,7.63,0,15.38-1.33,22.79-1.73,10-14.11,21.1-24.86,23.25,2-2.6,3.76-4.94,5.62-7.2q9.81-12,5.13-27.3c-1.74-5.64-3.7-11.25-5.56-16.88C566.93,182.3,568,165.1,575.87,149Z"/><path class="cls-1" d="M602.22,156.56c-3.3-3.16-6.62-2.91-10.13-1.35-2.69,1.19-4.33-.56-6-2.45-2.28-2.5-4.9-4.77-7.61-7.36,2.3-3.62,8.72-4.83,15.28-2.2C599.67,145.59,603.49,151.39,602.22,156.56Z"/><path class="cls-1" d="M593.75,141a18.89,18.89,0,0,1,11.41-7.25c1.81-.41,3.58-.07,3.77,1.9.06.55-1.67,1.22-2.73,1.56C602.12,138.55,598,139.75,593.75,141Z"/><path class="cls-2" d="M206.85,153.54a91.33,91.33,0,0,0-2-11A94.12,94.12,0,0,0,129,72l2.66-12.28H95.75L98.41,72A94.12,94.12,0,0,0,22.49,142.5a91.31,91.31,0,0,0-2,11H0v22.08H227.36V153.54Zm-164.06,0A71.75,71.75,0,0,1,182,142.5a70.14,70.14,0,0,1,2.62,11Z"/><path class="cls-2" d="M116.79,0c-2.14,6.38-3.42,12.65-1.69,19.15A25.64,25.64,0,0,0,118.28,27c5.93,8.55,1.9,18.14-3.7,23.64,1-8.83-2.76-16-6.74-23.08-4.48-8-2.72-16.76,4.62-23.93C113.81,2.35,115.34,1.22,116.79,0Z"/><path class="cls-2" d="M123.64,6.27c-.89,5.47.77,9.64,3.43,13.67,3,4.55,1.36,9.06-.81,13.54-.44-5.43-3-9.9-5.72-14.39S118.89,10.47,123.64,6.27Z"/><path class="cls-2" d="M101.06,21.62a15.59,15.59,0,0,0,3.78,11.54c4.07,5,4.61,9.08,1.72,15.76-.64-6-3.78-10.13-7.07-14.3S96.81,25.6,101.06,21.62Z"/><path class="cls-1" d="M182,186.65a72,72,0,0,1-29.77,38.43c.4-1.61.79-3.25,1.08-4.88,2-11.5-.29-20.62-6-23.79-2.36-1.32-7.29-2.65-13.9,3.19-4.65,4.1-8.17,10.3-11,15.82-4.51,8.79-8.86,15.59-13.26,20.75a71.86,71.86,0,0,1-63.71-49.52H22.49a93.83,93.83,0,0,0,182.38,0Zm-47.57,46.62c.83-1.54,1.44-3.2,2.11-4.81a61.14,61.14,0,0,0,2.47-7.2,62.52,62.52,0,0,0,1.53-7.39l-.32-.08c-.85,2.35-1.73,4.67-2.77,6.92s-2.12,4.45-3.3,6.6-2.74,4.06-3.81,6.25c-.16.31-.31.62-.46.93a71.83,71.83,0,0,1-15.13,1.82,122,122,0,0,0,11.62-18.88c2.64-5.15,5.89-10.9,10-14.53,2-1.73,5.72-4.37,8.83-2.64s5.64,8.44,3.77,19.18c-.35,2-.87,4.06-1.39,6.08l-.07.29c-.14.57-.28,1.15-.41,1.72-.81.61-1.62,1.2-2.42,1.77A70.7,70.7,0,0,1,134.38,233.27Z"/></g></g></svg>